<svg width="407" height="418" viewBox="0 0 407 418" fill="none" xmlns="http://www.w3.org/2000/svg">
<rect width="407" height="418" fill="#F5F5F5"/>
<rect x="162.516" y="84.0338" width="235" height="109" rx="38" transform="rotate(43.3444 162.516 84.0338)" stroke="#006657" stroke-width="20" stroke-linejoin="round"/>
<rect x="69.1682" y="182.939" width="235" height="109" rx="38" transform="rotate(43.3444 69.1682 182.939)" stroke="#006657" stroke-width="20" stroke-linejoin="round"/>
<path d="M249.933 161.039L276.486 132.906C276.486 132.906 234.412 47.8194 297.208 17.7082C360.003 -12.403 427.073 56.3986 382.303 122.774" stroke="#006657" stroke-width="20" stroke-linecap="round"/>
<path d="M33.7301 376.376C29.9393 380.393 30.1222 386.722 34.1387 390.513C38.1551 394.303 44.4841 394.12 48.2749 390.104L33.7301 376.376ZM77.6585 329.833L33.7301 376.376L48.2749 390.104L92.2033 343.561L77.6585 329.833Z" fill="#006657"/>
</svg>
